<svg width="37" height="37" viewBox="0 0 37 37" fill="none" xmlns="http://www.w3.org/2000/svg">
<circle cx="18.5" cy="18.5" r="18" stroke="#1D1D1F"/>
<path fill-rule="evenodd" clip-rule="evenodd" d="M13.3611 22.6111H23.6389C26.477 22.6111 28.7778 24.9119 28.7778 27.75C28.7778 28.3176 28.3176 28.7778 27.75 28.7778C27.2229 28.7778 26.7885 28.381 26.7291 27.8699L26.717 27.5688C26.6267 26.0102 25.3787 24.7622 23.8201 24.6719L23.6389 24.6667H13.3611C11.6582 24.6667 10.2778 26.0471 10.2778 27.75C10.2778 28.3176 9.81763 28.7778 9.25001 28.7778C8.68238 28.7778 8.22223 28.3176 8.22223 27.75C8.22223 24.9866 10.4035 22.7326 13.1382 22.6159L13.3611 22.6111H23.6389H13.3611ZM18.5 8.22222C21.9058 8.22222 24.6667 10.9831 24.6667 14.3889C24.6667 17.7946 21.9058 20.5556 18.5 20.5556C15.0943 20.5556 12.3333 17.7946 12.3333 14.3889C12.3333 10.9831 15.0943 8.22222 18.5 8.22222ZM18.5 10.2778C16.2295 10.2778 14.3889 12.1184 14.3889 14.3889C14.3889 16.6594 16.2295 18.5 18.5 18.5C20.7705 18.5 22.6111 16.6594 22.6111 14.3889C22.6111 12.1184 20.7705 10.2778 18.5 10.2778Z" fill="#1D1D1F"/>
</svg>
