<svg width="36" height="36" viewBox="0 0 36 36" fill="none" xmlns="http://www.w3.org/2000/svg">
<circle cx="18" cy="18" r="17.5" stroke="#E5E5E5"/>
<path fill-rule="evenodd" clip-rule="evenodd" d="M13 22H23C25.7614 22 28 24.2386 28 27C28 27.5523 27.5523 28 27 28C26.4872 28 26.0645 27.614 26.0067 27.1166L25.9949 26.8237C25.907 25.3072 24.6928 24.093 23.1763 24.0051L23 24H13C11.3431 24 10 25.3431 10 27C10 27.5523 9.55228 28 9 28C8.44772 28 8 27.5523 8 27C8 24.3112 10.1223 22.1182 12.7831 22.0046L13 22H23H13ZM18 8C21.3137 8 24 10.6863 24 14C24 17.3137 21.3137 20 18 20C14.6863 20 12 17.3137 12 14C12 10.6863 14.6863 8 18 8ZM18 10C15.7909 10 14 11.7909 14 14C14 16.2091 15.7909 18 18 18C20.2091 18 22 16.2091 22 14C22 11.7909 20.2091 10 18 10Z" fill="#E5E5E5"/>
</svg>
