<svg width="32" height="32" viewBox="0 0 32 32" fill="none" xmlns="http://www.w3.org/2000/svg">
<path fill-rule="evenodd" clip-rule="evenodd" d="M7.18652 13.5001L14.7627 5.92395L15.7055 6.86676L8.12933 14.4429L7.18652 13.5001Z" fill="#999999"/>
<path fill-rule="evenodd" clip-rule="evenodd" d="M9.70068 16.0142L17.2768 8.43799L18.2196 9.3808L10.6435 16.957L9.70068 16.0142Z" fill="#999999"/>
<path fill-rule="evenodd" clip-rule="evenodd" d="M15.0432 21.3567L22.6194 13.7806L23.5622 14.7234L15.986 22.2995L15.0432 21.3567Z" fill="#999999"/>
<path fill-rule="evenodd" clip-rule="evenodd" d="M17.5574 23.8708L25.1335 16.2946L26.0763 17.2374L18.5002 24.8136L17.5574 23.8708Z" fill="#999999"/>
<path fill-rule="evenodd" clip-rule="evenodd" d="M17.5573 23.8709C14.9422 26.486 10.7117 26.4954 8.10823 23.8919C5.50474 21.2884 5.51416 17.0579 8.12928 14.4428L7.18647 13.5C4.04832 16.6381 4.03702 21.7148 7.16121 24.839C10.2854 27.9632 15.362 27.9518 18.5002 24.8137L17.5573 23.8709Z" fill="#999999"/>
<path fill-rule="evenodd" clip-rule="evenodd" d="M22.6195 13.7805L23.5623 14.7233C26.003 12.2825 26.0118 8.33404 23.5819 5.90411C21.152 3.47418 17.2035 3.48297 14.7627 5.92375L15.7055 6.86656C17.6233 4.94881 20.7257 4.9419 22.6349 6.85113C24.5441 8.76036 24.5372 11.8627 22.6195 13.7805Z" fill="#999999"/>
<path fill-rule="evenodd" clip-rule="evenodd" d="M9.70084 16.0144C7.95743 17.7578 7.95115 20.5782 9.68681 22.3138C11.4225 24.0495 14.2428 24.0432 15.9862 22.2998L15.0434 21.357C13.823 22.5774 11.8488 22.5818 10.6338 21.3668C9.41886 20.1518 9.42326 18.1776 10.6436 16.9572L9.70084 16.0144Z" fill="#999999"/>
</svg>
